<?xml version="1.0" encoding="UTF-8" standalone="no"?>
<!-- Created with Inkscape (http://www.inkscape.org/) -->

<svg
   xmlns:dc="http://purl.org/dc/elements/1.1/"
   xmlns:cc="http://creativecommons.org/ns#"
   xmlns:rdf="http://www.w3.org/1999/02/22-rdf-syntax-ns#"
   xmlns:svg="http://www.w3.org/2000/svg"
   xmlns="http://www.w3.org/2000/svg"
   xmlns:sodipodi="http://sodipodi.sourceforge.net/DTD/sodipodi-0.dtd"
   xmlns:inkscape="http://www.inkscape.org/namespaces/inkscape"
   width="96"
   height="96"
   id="svg2"
   version="1.1"
   inkscape:version="0.48.4 r9939"
   sodipodi:docname="Neues Dokument 1">
  <defs
     id="defs4" />
  <sodipodi:namedview
     id="base"
     pagecolor="#ffffff"
     bordercolor="#666666"
     borderopacity="1.0"
     inkscape:pageopacity="0.0"
     inkscape:pageshadow="2"
     inkscape:zoom="2.8"
     inkscape:cx="15.477866"
     inkscape:cy="44.099742"
     inkscape:document-units="px"
     inkscape:current-layer="layer1"
     showgrid="false"
     inkscape:window-width="1366"
     inkscape:window-height="744"
     inkscape:window-x="0"
     inkscape:window-y="24"
     inkscape:window-maximized="1" />
  <metadata
     id="metadata7">
    <rdf:RDF>
      <cc:Work
         rdf:about="">
        <dc:format>image/svg+xml</dc:format>
        <dc:type
           rdf:resource="http://purl.org/dc/dcmitype/StillImage" />
        <dc:title></dc:title>
      </cc:Work>
    </rdf:RDF>
  </metadata>
  <g
     inkscape:label="Ebene 1"
     inkscape:groupmode="layer"
     id="layer1"
     transform="translate(0,-956.36218)">
    <rect
       style="fill:#e3dbdb;fill-opacity:1;stroke:#492828;stroke-width:3.77593802999999983;stroke-linejoin:round;stroke-miterlimit:4;stroke-opacity:1;stroke-dasharray:none"
       id="rect3948"
       width="92.22406"
       height="92.22406"
       x="1.887969"
       y="958.25012" />
    <g
       id="g3950"
       transform="matrix(0.93839495,0,0,0.93839495,0.8307923,57.904945)">
      <path
         sodipodi:nodetypes="ccccc"
         inkscape:connector-curvature="0"
         id="path2987"
         d="M 59.111949,976.87231 86.91904,999.758 46.634825,1048.7051 18.641526,1025.6661 z"
         style="fill:#087408;fill-opacity:1;stroke:none" />
      <path
         inkscape:connector-curvature="0"
         id="path2985"
         d="m 82.025395,963.19961 -19.00199,23.08824 13.034574,10.72766 19.00199,-23.08823 -13.034574,-10.72767 z m -2.768092,7.79089 2.606915,2.14554 -2.280236,2.77058 -2.606914,-2.14553 2.280235,-2.77059 z m 6.082802,5.00625 2.606914,2.14553 -2.280235,2.77058 -2.606915,-2.14553 2.280236,-2.77058 z"
         style="fill:#8e8e8e;fill-opacity:1;stroke:none" />
      <rect
         transform="matrix(0.77212468,0.63547107,-0.63547107,0.77212468,0,0)"
         y="735.79797"
         x="681.24744"
         height="22.853834"
         width="9.6465349"
         id="rect3796"
         style="fill:#000000;fill-opacity:1;stroke:none" />
      <rect
         transform="matrix(0.77212468,0.63547107,-0.63547107,0.77212468,0,0)"
         y="725.80206"
         x="681.04645"
         height="4.058157"
         width="1.8087254"
         id="rect3798"
         style="fill:#1a1a1a;fill-opacity:1;stroke:none" />
      <rect
         transform="matrix(0.77212468,0.63547107,-0.63547107,0.77212468,0,0)"
         y="725.80206"
         x="684.42273"
         height="4.058157"
         width="1.8087254"
         id="rect3798-4"
         style="fill:#1a1a1a;fill-opacity:1;stroke:none" />
      <rect
         transform="matrix(0.77212468,0.63547107,-0.63547107,0.77212468,0,0)"
         y="725.80206"
         x="687.79901"
         height="4.058157"
         width="1.8087254"
         id="rect3798-4-9"
         style="fill:#1a1a1a;fill-opacity:1;stroke:none" />
      <rect
         transform="matrix(0.77212468,0.63547107,-0.63547107,0.77212468,0,0)"
         y="725.80206"
         x="677.67017"
         height="4.058157"
         width="1.8087254"
         id="rect3798-4-6"
         style="fill:#1a1a1a;fill-opacity:1;stroke:none" />
      <rect
         transform="matrix(0.77212468,0.63547107,-0.63547107,0.77212468,0,0)"
         y="768.90393"
         x="668.98828"
         height="3.8445699"
         width="11.254292"
         id="rect3843"
         style="fill:#000000;fill-opacity:1;stroke:none" />
      <rect
         transform="matrix(0.77212468,0.63547107,-0.63547107,0.77212468,0,0)"
         y="769.07495"
         x="687.79901"
         height="3.8445699"
         width="1.4067864"
         id="rect3847"
         style="fill:#b3b3b3;fill-opacity:1;stroke:none" />
      <rect
         transform="matrix(0.77212468,0.63547107,-0.63547107,0.77212468,0,0)"
         y="769.07495"
         x="690.04987"
         height="3.8445699"
         width="1.4067864"
         id="rect3847-5"
         style="fill:#b3b3b3;fill-opacity:1;stroke:none" />
      <rect
         transform="matrix(0.77212468,0.63547107,-0.63547107,0.77212468,0,0)"
         y="769.07495"
         x="692.30072"
         height="3.8445699"
         width="1.4067864"
         id="rect3847-9"
         style="fill:#b3b3b3;fill-opacity:1;stroke:none" />
      <rect
         transform="matrix(0.77212468,0.63547107,-0.63547107,0.77212468,0,0)"
         y="778.4458"
         x="669.79218"
         height="14.807127"
         width="2.0412178"
         id="rect3885"
         style="fill:#552200;fill-opacity:1;stroke:none" />
      <rect
         transform="matrix(0.77212468,0.63547107,-0.63547107,0.77212468,0,0)"
         y="778.4458"
         x="675.41931"
         height="14.807127"
         width="2.0412178"
         id="rect3885-6"
         style="fill:#552200;fill-opacity:1;stroke:none" />
      <rect
         transform="matrix(0.77212468,0.63547107,-0.63547107,0.77212468,0,0)"
         y="778.4458"
         x="681.04645"
         height="14.807127"
         width="2.0412178"
         id="rect3885-6-5"
         style="fill:#552200;fill-opacity:1;stroke:none" />
      <rect
         transform="matrix(0.77212468,0.63547107,-0.63547107,0.77212468,0,0)"
         y="778.4458"
         x="686.67358"
         height="14.807127"
         width="2.0412178"
         id="rect3885-6-5-1"
         style="fill:#552200;fill-opacity:1;stroke:none" />
      <rect
         transform="matrix(0.77212468,0.63547107,-0.63547107,0.77212468,0,0)"
         y="778.4458"
         x="692.30072"
         height="14.807127"
         width="2.0412178"
         id="rect3885-6-5-6"
         style="fill:#552200;fill-opacity:1;stroke:none" />
    </g>
    <text
       xml:space="preserve"
       style="font-size:59.74977875px;font-style:normal;font-weight:normal;line-height:125%;letter-spacing:0px;word-spacing:0px;fill:#800000;fill-opacity:1;stroke:none;font-family:Sans"
       x="1.4055895"
       y="937.07861"
       id="text3968"
       sodipodi:linespacing="125%"
       transform="scale(0.93953869,1.0643521)"><tspan
         sodipodi:role="line"
         id="tspan3970"
         x="1.4055895"
         y="937.07861">&gt;</tspan></text>
  </g>
</svg>
